# xmcd
# Track frame offsets:
# 150
# 19308
# 36366
# 51547
# 82746
# 102151
# 118078
# 143156
# 166680
# 180332
#
# Disc length: 2633 seconds
# Revision: 0
# Processed by: cddbd v1.5.1PL0 Copyright (c) Steve Scherf et al.
# Submitted via: VisiTrax 2.9.10.228 - For more info visit www.synapsa.com
#
DISCID=7b0a470a
DTITLE=Albert Lee - Heartbreak Hil
DYEAR=2003
DGENRE=
TTITLE0=Heartbreak Hill
TTITLE1=Heaven Only Knows
TTITLE2=If I Needed You
TTITLE3=Born To Run
TTITLE4=Luxury Liner
TTITLE5=In My Dreams
TTITLE6=Two More Bottles of Wine
TTITLE7='Til I Gain Control Again
TTITLE8=One Of These Days
TTITLE9=Bluebird Wine
EXTD=Luxury Liner with Brad Paisley and Vince Gill - Instrumental\nSugar Hi
EXTD=ll SUG-3927
EXTT0=
EXTT1=
EXTT2=
EXTT3=
EXTT4=
EXTT5=
EXTT6=
EXTT7=
EXTT8=
EXTT9=
PLAYORDER=
